# xmcd
#
# Track frame offsets:
#	150
#	10124
#	22444
#	34817
#	47339
#	61785
#	73086
#	83012
#	95005
#	105239
#	117387
#	128389
#	137703
#	149328
#	160063
#	174306
#	187377
#	197886
#
# Disc length: 2823 seconds
#
# Revision: 3
# Processed by: cddbd v1.5.2PL0 Copyright (c) Steve Scherf et al.
# Submitted via: audiograbber 1.83.01
#
DISCID=f60b0512
DTITLE=Dean Martin - You're nobody 'til somebody loves you
DYEAR=1999
DGENRE=Big Band
TTITLE0=You're Nobody 'til Somebody Loves You
TTITLE1=Everybody Loves Somebody
TTITLE2=Little Ol' Winedrinker Me
TTITLE3=Red Roses For A Blue Lady
TTITLE4=Release Me
TTITLE5=Send Me The Pillow You Dream On
TTITLE6=Ramblin Rose
TTITLE7=Houston
TTITLE8=I Will
TTITLE9=In The Misty Moonlight
TTITLE10=Gentle On My Mind
TTITLE11=Come Running Back
TTITLE12=I'm So Lonesome I Could Cry
TTITLE13=(Remember Me) I'm The One Who Loves You
TTITLE14=My Heart Cries For You
TTITLE15=The Door Is Still Open To My Heard
TTITLE16=King Of The Road
TTITLE17=That's Amore
EXTD=
EXTT0=
EXTT1=
EXTT2=
EXTT3=
EXTT4=
EXTT5=
EXTT6=
EXTT7=
EXTT8=
EXTT9=
EXTT10=
EXTT11=
EXTT12=
EXTT13=
EXTT14=
EXTT15=
EXTT16=
EXTT17=
PLAYORDER=
